<svg width="115" height="114" viewBox="0 0 115 114" fill="none" xmlns="http://www.w3.org/2000/svg">
<g clip-path="url(#clip0_1_709)">
<path d="M82.9481 30.7458C108.319 56.2162 120.97 87.6798 105.095 103.616C89.2207 119.553 55.9669 119.077 25.4547 88.4592C0.0745754 62.9713 -7.6149 29.4203 8.25973 13.4838C24.1343 -2.4528 57.5724 5.2843 82.9481 30.7458ZM46.3079 69.3521C58.1163 81.2109 73.2321 85.7378 82.2199 80.7397C87.1986 71.7168 82.6893 56.542 70.8765 44.6832C59.0638 32.8243 43.9392 28.3018 34.9645 33.2999C29.9859 42.3228 34.4952 57.4976 46.3079 69.3521Z" fill="url(#paint0_linear_1_709)"/>
<path d="M88.9397 26.1619C114.706 52.0329 122.716 85.9229 106.845 101.859C90.9751 117.796 57.2124 109.746 31.4463 83.8797C5.68022 58.013 -2.32947 24.123 13.5364 8.18645C29.4022 -7.75012 63.1692 0.295227 88.9397 26.1619ZM46.3077 69.3522C58.116 81.2111 73.2318 85.738 82.2197 80.7399C87.1983 71.717 82.689 56.5422 70.8763 44.6834C59.0635 32.8245 43.939 28.302 34.9643 33.3001C29.9856 42.323 34.4949 57.4978 46.3077 69.3522Z" fill="url(#paint1_radial_1_709)"/>
<path d="M70.8765 44.6832C59.0682 32.8288 43.9524 28.3019 34.9645 33.3C35.5711 32.1866 36.3317 31.1652 37.2236 30.2659C45.4657 21.9916 62.8932 26.0781 76.1535 39.3857C89.4137 52.6933 93.48 70.2108 85.2378 78.4719C84.3425 79.3659 83.3266 80.1293 82.2199 80.7398C87.1986 71.7168 82.6893 56.5421 70.8765 44.6832Z" fill="url(#paint2_linear_1_709)"/>
<path d="M31.4466 83.8796C57.046 109.579 90.5279 117.686 106.53 102.163C106.429 102.269 106.332 102.379 106.227 102.48C90.3524 118.421 56.5942 110.372 30.8237 84.5049C5.05322 58.6382 -2.95209 24.7438 12.9182 8.80727C13.019 8.70158 13.1287 8.6047 13.234 8.50342C-2.22832 24.5677 5.84717 58.1803 31.4466 83.8796Z" fill="url(#paint3_linear_1_709)"/>
</g>
<defs>
<linearGradient id="paint0_linear_1_709" x1="101.575" y1="107.157" x2="7.8996" y2="13.8465" gradientUnits="userSpaceOnUse">
<stop offset="0.03" stop-color="#706F6F"/>
<stop offset="0.38" stop-color="#C6C6C6"/>
<stop offset="0.42" stop-color="#CFCFCF"/>
<stop offset="0.47" stop-color="#E6E6E6"/>
<stop offset="0.51" stop-color="#F6F6F6"/>
<stop offset="0.59" stop-color="#D8D8D7"/>
<stop offset="0.66" stop-color="#C0C0BF"/>
<stop offset="0.79" stop-color="#A3A3A2"/>
<stop offset="1" stop-color="#706F6F"/>
</linearGradient>
<radialGradient id="paint1_radial_1_709" cx="0" cy="0" r="1" gradientUnits="userSpaceOnUse" gradientTransform="translate(66.4896 45.5786) rotate(-134.888) scale(65.7541 40.7672)">
<stop stop-color="#C6C6C6"/>
<stop offset="0.56" stop-color="#C4C4C4"/>
<stop offset="0.83" stop-color="#BCBCBC"/>
<stop offset="1" stop-color="#B2B2B2"/>
</radialGradient>
<linearGradient id="paint2_linear_1_709" x1="91.3824" y1="72.3077" x2="43.178" y2="24.2906" gradientUnits="userSpaceOnUse">
<stop offset="0.03" stop-color="#706F6F"/>
<stop offset="0.55" stop-color="#F6F6F6"/>
<stop offset="0.61" stop-color="#EDEDED"/>
<stop offset="0.71" stop-color="#D6D5D5"/>
<stop offset="0.83" stop-color="#AFAFAF"/>
<stop offset="0.97" stop-color="#7A7979"/>
<stop offset="1" stop-color="#706F6F"/>
</linearGradient>
<linearGradient id="paint3_linear_1_709" x1="92.012" y1="116.757" x2="-1.66293" y2="23.4464" gradientUnits="userSpaceOnUse">
<stop offset="0.03" stop-color="#1D1D1B"/>
<stop offset="0.51" stop-color="#C6C6C6"/>
<stop offset="0.56" stop-color="#BDBDBD"/>
<stop offset="0.65" stop-color="#A6A6A5"/>
<stop offset="0.77" stop-color="#7F7F7F"/>
<stop offset="0.9" stop-color="#4B4B49"/>
<stop offset="1" stop-color="#1D1D1B"/>
</linearGradient>
<clipPath id="clip0_1_709">
<rect width="115" height="114" fill="white" transform="matrix(-1 0 0 1 115 0)"/>
</clipPath>
</defs>
</svg>
